<svg width="496" height="505" viewBox="0 0 496 505" fill="none" xmlns="http://www.w3.org/2000/svg">
<rect x="40.7012" width="438" height="467" rx="8" transform="rotate(5 40.7012 0)" fill="white"/>
<rect x="60.0586" y="122.957" width="60" height="294" rx="8" transform="rotate(5 60.0586 122.957)" fill="#369DFF"/>
<rect x="50.7444" y="206.462" width="64" height="212" rx="10" transform="rotate(5 50.7444 206.462)" fill="#37D9EF" stroke="white" stroke-width="4"/>
<rect x="40.5472" y="323.017" width="64" height="95" rx="10" transform="rotate(5 40.5472 323.017)" fill="#2CE75C" stroke="white" stroke-width="4"/>
<rect x="363.34" y="305.082" width="60" height="139" rx="8" transform="rotate(5 363.34 305.082)" fill="#369DFF"/>
<rect x="354.287" y="385.599" width="64" height="60" rx="10" transform="rotate(5 354.287 385.599)" fill="#37D9EF" stroke="white" stroke-width="4"/>
<rect x="351.151" y="421.462" width="64" height="24" rx="10" transform="rotate(5 351.151 421.462)" fill="#2CE75C" stroke="white" stroke-width="4"/>
<rect x="159.381" y="203.922" width="60" height="222" rx="8" transform="rotate(5 159.381 203.922)" fill="#369DFF"/>
<rect x="150.852" y="278.462" width="64" height="149" rx="10" transform="rotate(5 150.852 278.462)" fill="#37D9EF" stroke="white" stroke-width="4"/>
<rect x="143.617" y="361.146" width="64" height="66" rx="10" transform="rotate(5 143.617 361.146)" fill="#2CE75C" stroke="white" stroke-width="4"/>
<rect x="259.398" y="276.916" width="60" height="158" rx="8" transform="rotate(5 259.398 276.916)" fill="#369DFF"/>
<rect x="252.264" y="335.517" width="64" height="101" rx="10" transform="rotate(5 252.264 335.517)" fill="#37D9EF" stroke="white" stroke-width="4"/>
<rect x="247.295" y="392.3" width="64" height="44" rx="10" transform="rotate(5 247.295 392.3)" fill="#2CE75C" stroke="white" stroke-width="4"/>
<path d="M123.117 136.504L154.697 211.542L136.743 416.758C136.358 421.159 132.478 424.415 128.076 424.03L106.16 422.113C101.759 421.728 98.5028 417.847 98.8879 413.446L123.117 136.504Z" fill="#D2D7E5"/>
<path d="M222.439 217.469L254.717 284.537L242.341 425.997C241.956 430.398 238.075 433.654 233.674 433.269L211.758 431.352C207.356 430.967 204.1 427.086 204.485 422.685L222.439 217.469Z" fill="#D2D7E5"/>
<path d="M322.457 290.463L358.656 312.703L347.936 435.234C347.551 439.636 343.671 442.892 339.27 442.507L317.353 440.589C312.952 440.204 309.696 436.324 310.081 431.922L322.457 290.463Z" fill="#D2D7E5"/>
<path d="M75.5493 61.1974C74.6288 61.1169 73.817 60.8953 73.114 60.5327C72.4109 60.17 71.8638 59.6764 71.4728 59.052C71.0937 58.4286 70.9282 57.7034 70.9765 56.8765L74.24 57.162C74.2471 57.6324 74.3771 58.0051 74.6301 58.2802C74.8841 58.5434 75.2323 58.6943 75.6746 58.733C76.1288 58.7727 76.4964 58.7025 76.7771 58.5223C77.059 58.3301 77.2161 58.0487 77.2485 57.6781C77.2757 57.3673 77.1906 57.1009 76.9932 56.8788C76.8077 56.6578 76.5654 56.468 76.2661 56.3093C75.9787 56.1517 75.5614 55.9646 75.0142 55.7481C74.2233 55.4259 73.5818 55.1168 73.0897 54.8208C72.5976 54.5248 72.1877 54.1155 71.86 53.593C71.5323 53.0704 71.403 52.4146 71.472 51.6257C71.5745 50.4541 72.0789 49.5768 72.9852 48.9935C73.8925 48.3983 75.0276 48.1604 76.3904 48.2796C77.7771 48.4009 78.8655 48.8334 79.6557 49.5771C80.4469 50.3089 80.8207 51.2691 80.7769 52.4578L77.4596 52.1676C77.4712 51.759 77.3495 51.4292 77.0944 51.178C76.8404 50.9148 76.4982 50.7644 76.0679 50.7268C75.6973 50.6944 75.3895 50.7698 75.1446 50.9532C74.9007 51.1246 74.7626 51.3956 74.7302 51.7662C74.6946 52.1726 74.8582 52.5061 75.2208 52.7667C75.5835 53.0273 76.1598 53.3247 76.9497 53.6588C77.7385 54.0049 78.373 54.3254 78.8531 54.6204C79.3452 54.9164 79.7556 55.3197 80.0843 55.8303C80.4131 56.3409 80.5445 56.9727 80.4786 57.7258C80.4159 58.4431 80.1736 59.0784 79.7518 59.6317C79.3419 60.1861 78.7751 60.6063 78.0514 60.8924C77.3277 61.1784 76.4937 61.2801 75.5493 61.1974ZM87.8419 59.5265L87.6145 62.1265L86.0544 61.99C84.9427 61.8928 84.0995 61.548 83.5249 60.9556C82.9514 60.3514 82.7185 59.4336 82.8263 58.2023L83.1745 54.2215L81.9552 54.1148L82.178 51.5685L83.3973 51.6752L83.6107 49.2365L86.6769 49.5048L86.4636 51.9435L88.4719 52.1192L88.2492 54.6654L86.2408 54.4897L85.8894 58.5064C85.8633 58.8053 85.9162 59.0267 86.0481 59.1708C86.1801 59.3148 86.4134 59.4015 86.7481 59.4308L87.8419 59.5265ZM99.2062 57.9369C99.1811 58.2238 99.137 58.5211 99.074 58.8287L92.1345 58.2216C92.1279 58.8474 92.2833 59.3428 92.6007 59.7079C92.9311 60.062 93.3533 60.2616 93.8674 60.3066C94.6325 60.3735 95.1927 60.0973 95.548 59.4779L98.8115 59.7634C98.5866 60.4063 98.23 60.9713 97.7417 61.4586C97.2653 61.947 96.6853 62.3118 96.0017 62.5531C95.3181 62.7945 94.5698 62.8796 93.7569 62.8085C92.7766 62.7227 91.9223 62.4372 91.1938 61.9518C90.4653 61.4665 89.9199 60.8165 89.5575 60.0018C89.1952 59.1871 89.0595 58.2597 89.1505 57.2197C89.2415 56.1797 89.5301 55.2895 90.0165 54.549C90.5149 53.8097 91.1649 53.2642 91.9666 52.9128C92.7682 52.5613 93.6652 52.429 94.6574 52.5158C95.6257 52.6005 96.4686 52.879 97.1862 53.3514C97.9038 53.8237 98.4388 54.4547 98.7913 55.2445C99.1558 56.0352 99.2941 56.9327 99.2062 57.9369ZM96.1388 56.8554C96.1848 56.3294 96.0421 55.8953 95.7107 55.5531C95.3792 55.211 94.9445 55.0163 94.4066 54.9693C93.8926 54.9243 93.4432 55.0355 93.0584 55.303C92.6856 55.5716 92.4333 55.9771 92.3015 56.5197L96.1388 56.8554ZM104.19 54.9217C104.529 54.4817 104.975 54.1412 105.526 53.9003C106.077 53.6594 106.705 53.5698 107.41 53.6315C108.235 53.7037 108.964 53.9783 109.597 54.4552C110.23 54.9322 110.704 55.5759 111.018 56.3864C111.345 57.198 111.463 58.1178 111.373 59.1459C111.283 60.1739 111.006 61.0652 110.543 61.8197C110.092 62.5633 109.513 63.1209 108.806 63.4927C108.1 63.8525 107.335 63.9964 106.51 63.9242C105.817 63.8636 105.214 63.6662 104.701 63.3323C104.2 62.9994 103.82 62.5927 103.561 62.1123L103.021 68.2807L99.9547 68.0124L101.247 53.2369L104.314 53.5051L104.19 54.9217ZM108.253 58.8729C108.32 58.1078 108.157 57.4913 107.764 57.0233C107.385 56.5444 106.884 56.2777 106.262 56.2233C105.653 56.17 105.113 56.3456 104.644 56.7503C104.187 57.156 103.925 57.7414 103.858 58.5065C103.791 59.2715 103.948 59.8935 104.327 60.3725C104.719 60.8524 105.22 61.1191 105.829 61.1724C106.439 61.2258 106.978 61.0501 107.447 60.6454C107.917 60.2288 108.186 59.638 108.253 58.8729ZM116.61 54.3461L116.86 51.495L121.827 51.9295L120.682 65.0195L117.49 64.7403L118.386 54.5014L116.61 54.3461Z" fill="#42454F"/>
<path d="M178.896 70.2394C177.976 70.1589 177.164 69.9373 176.461 69.5746C175.758 69.212 175.211 68.7184 174.819 68.094C174.44 67.4706 174.275 66.7454 174.323 65.9184L177.587 66.204C177.594 66.6744 177.724 67.0471 177.977 67.3222C178.231 67.5853 178.579 67.7363 179.021 67.775C179.476 67.8147 179.843 67.7445 180.124 67.5643C180.406 67.3721 180.563 67.0907 180.595 66.7201C180.622 66.4093 180.537 66.1429 180.34 65.9208C180.154 65.6998 179.912 65.51 179.613 65.3513C179.325 65.1936 178.908 65.0066 178.361 64.79C177.57 64.4679 176.928 64.1588 176.436 63.8628C175.944 63.5668 175.534 63.1575 175.207 62.6349C174.879 62.1124 174.75 61.4566 174.819 60.6676C174.921 59.4961 175.426 58.6187 176.332 58.0355C177.239 57.4403 178.374 57.2023 179.737 57.3216C181.124 57.4429 182.212 57.8754 183.002 58.6191C183.794 59.3508 184.167 60.3111 184.124 61.4998L180.806 61.2096C180.818 60.801 180.696 60.4711 180.441 60.22C180.187 59.9568 179.845 59.8064 179.415 59.7688C179.044 59.7364 178.736 59.8118 178.491 59.9952C178.247 60.1666 178.109 60.4376 178.077 60.8081C178.041 61.2146 178.205 61.5481 178.568 61.8087C178.93 62.0693 179.506 62.3667 180.296 62.7008C181.085 63.0469 181.72 63.3674 182.2 63.6623C182.692 63.9584 183.102 64.3617 183.431 64.8723C183.76 65.3828 183.891 66.0147 183.825 66.7678C183.763 67.4851 183.52 68.1204 183.098 68.6737C182.689 69.2281 182.122 69.6483 181.398 69.9343C180.674 70.2204 179.84 70.322 178.896 70.2394ZM191.189 68.5684L190.961 71.1685L189.401 71.032C188.289 70.9348 187.446 70.59 186.872 69.9976C186.298 69.3933 186.065 68.4756 186.173 67.2443L186.521 63.2635L185.302 63.1568L185.525 60.6105L186.744 60.7172L186.957 58.2785L190.024 58.5468L189.81 60.9855L191.819 61.1612L191.596 63.7074L189.588 63.5317L189.236 67.5484C189.21 67.8472 189.263 68.0687 189.395 68.2127C189.527 68.3568 189.76 68.4435 190.095 68.4727L191.189 68.5684ZM202.553 66.9789C202.528 67.2658 202.484 67.563 202.421 67.8707L195.481 67.2636C195.475 67.8894 195.63 68.3848 195.947 68.7499C196.278 69.104 196.7 69.3036 197.214 69.3486C197.979 69.4155 198.539 69.1393 198.895 68.5199L202.158 68.8054C201.933 69.4482 201.577 70.0133 201.088 70.5006C200.612 70.989 200.032 71.3538 199.348 71.5951C198.665 71.8365 197.916 71.9216 197.104 71.8504C196.123 71.7647 195.269 71.4791 194.54 70.9938C193.812 70.5085 193.267 69.8585 192.904 69.0438C192.542 68.2291 192.406 67.3017 192.497 66.2617C192.588 65.2217 192.877 64.3315 193.363 63.591C193.862 62.8516 194.512 62.3062 195.313 61.9548C196.115 61.6033 197.012 61.471 198.004 61.5578C198.972 61.6425 199.815 61.921 200.533 62.3933C201.25 62.8657 201.785 63.4967 202.138 64.2864C202.502 65.0772 202.641 65.9747 202.553 66.9789ZM199.485 65.8974C199.532 65.3714 199.389 64.9373 199.057 64.5951C198.726 64.2529 198.291 64.0583 197.753 64.0112C197.239 63.9663 196.79 64.0775 196.405 64.345C196.032 64.6135 195.78 65.0191 195.648 65.5617L199.485 65.8974ZM207.536 63.9637C207.876 63.5236 208.321 63.1832 208.873 62.9423C209.424 62.7014 210.052 62.6118 210.757 62.6735C211.582 62.7457 212.311 63.0202 212.944 63.4972C213.577 63.9742 214.05 64.6179 214.365 65.4284C214.691 66.24 214.81 67.1598 214.72 68.1879C214.63 69.2159 214.353 70.1072 213.889 70.8617C213.439 71.6052 212.86 72.1629 212.153 72.5347C211.447 72.8945 210.682 73.0384 209.857 72.9662C209.163 72.9055 208.56 72.7082 208.047 72.3743C207.546 72.0413 207.166 71.6347 206.907 71.1543L206.368 77.3227L203.301 77.0544L204.594 62.2789L207.66 62.5471L207.536 63.9637ZM211.6 67.9149C211.666 67.1498 211.504 66.5333 211.111 66.0653C210.731 65.5863 210.231 65.3197 209.609 65.2653C208.999 65.212 208.46 65.3876 207.991 65.7923C207.534 66.198 207.272 66.7834 207.205 67.5485C207.138 68.3135 207.294 68.9355 207.674 69.4144C208.066 69.8944 208.566 70.1611 209.176 70.2144C209.786 70.2677 210.325 70.0921 210.794 69.6874C211.264 69.2708 211.533 68.68 211.6 67.9149ZM219.491 71.1892C219.926 70.902 220.125 70.7687 220.087 70.7895C221.343 69.9237 222.333 69.2093 223.057 68.6462C223.792 68.0842 224.423 67.4829 224.949 66.8423C225.475 66.2017 225.766 65.5586 225.823 64.9131C225.865 64.4229 225.785 64.0305 225.582 63.7356C225.379 63.4408 225.051 63.2735 224.596 63.2338C224.142 63.1941 223.768 63.336 223.475 63.6597C223.195 63.9724 223.027 64.4396 222.973 65.0613L220.014 64.8024C220.127 63.7884 220.416 62.9585 220.882 62.3126C221.36 61.6678 221.948 61.2133 222.646 60.9491C223.356 60.686 224.123 60.5905 224.948 60.6626C226.37 60.7871 227.408 61.2453 228.062 62.0373C228.727 62.8303 229.009 63.8126 228.906 64.9841C228.794 66.2632 228.254 67.4145 227.285 68.4379C226.317 69.4494 225.112 70.4161 223.67 71.3379L228.512 71.7615L228.294 74.254L219.292 73.4665L219.491 71.1892Z" fill="#42454F"/>
<path d="M284.685 79.4945C283.765 79.4139 282.953 79.1923 282.25 78.8297C281.547 78.467 281 77.9735 280.609 77.349C280.23 76.7256 280.064 76.0004 280.112 75.1735L283.376 75.459C283.383 75.9294 283.513 76.3022 283.766 76.5773C284.02 76.8404 284.368 76.9913 284.811 77.03C285.265 77.0698 285.632 76.9995 285.913 76.8193C286.195 76.6271 286.352 76.3458 286.384 75.9752C286.412 75.6644 286.327 75.3979 286.129 75.1759C285.944 74.9549 285.701 74.765 285.402 74.6063C285.115 74.4487 284.697 74.2616 284.15 74.0451C283.359 73.7229 282.718 73.4139 282.226 73.1178C281.734 72.8218 281.324 72.4125 280.996 71.89C280.668 71.3674 280.539 70.7117 280.608 69.9227C280.711 68.7512 281.215 67.8738 282.121 67.2906C283.029 66.6954 284.164 66.4574 285.526 66.5766C286.913 66.6979 288.002 67.1304 288.792 67.8741C289.583 68.6059 289.957 69.5661 289.913 70.7548L286.596 70.4646C286.607 70.0561 286.486 69.7262 286.23 69.475C285.976 69.2119 285.634 69.0615 285.204 69.0238C284.833 68.9914 284.526 69.0669 284.281 69.2502C284.037 69.4216 283.899 69.6926 283.866 70.0632C283.831 70.4696 283.994 70.8032 284.357 71.0638C284.719 71.3244 285.296 71.6217 286.086 71.9558C286.875 72.3019 287.509 72.6224 287.989 72.9174C288.481 73.2134 288.892 73.6167 289.22 74.1273C289.549 74.6379 289.681 75.2698 289.615 76.0229C289.552 76.7401 289.31 77.3754 288.888 77.9288C288.478 78.4832 287.911 78.9034 287.187 79.1894C286.464 79.4754 285.63 79.5771 284.685 79.4945ZM296.978 77.8235L296.75 80.4236L295.19 80.2871C294.079 80.1898 293.235 79.845 292.661 79.2527C292.087 78.6484 291.855 77.7306 291.962 76.4993L292.311 72.5185L291.091 72.4118L291.314 69.8656L292.533 69.9722L292.747 67.5335L295.813 67.8018L295.6 70.2405L297.608 70.4162L297.385 72.9625L295.377 72.7868L295.025 76.8034C294.999 77.1023 295.052 77.3237 295.184 77.4678C295.316 77.6118 295.549 77.6985 295.884 77.7278L296.978 77.8235ZM308.342 76.2339C308.317 76.5208 308.273 76.8181 308.21 77.1258L301.27 76.5186C301.264 77.1445 301.419 77.6399 301.737 78.0049C302.067 78.3591 302.489 78.5586 303.003 78.6036C303.768 78.6705 304.329 78.3943 304.684 77.7749L307.948 78.0605C307.723 78.7033 307.366 79.2684 306.878 79.7557C306.401 80.244 305.821 80.6088 305.138 80.8502C304.454 81.0915 303.706 81.1766 302.893 81.1055C301.913 81.0197 301.058 80.7342 300.33 80.2489C299.601 79.7635 299.056 79.1135 298.694 78.2988C298.331 77.4841 298.195 76.5568 298.286 75.5168C298.377 74.4767 298.666 73.5865 299.153 72.8461C299.651 72.1067 300.301 71.5613 301.103 71.2098C301.904 70.8583 302.801 70.726 303.793 70.8128C304.762 70.8975 305.605 71.1761 306.322 71.6484C307.04 72.1207 307.575 72.7518 307.927 73.5415C308.292 74.3323 308.43 75.2297 308.342 76.2339ZM305.275 75.1524C305.321 74.6265 305.178 74.1924 304.847 73.8502C304.515 73.508 304.081 73.3134 303.543 73.2663C303.029 73.2213 302.579 73.3326 302.194 73.6001C301.822 73.8686 301.569 74.2741 301.437 74.8167L305.275 75.1524ZM313.326 73.2188C313.665 72.7787 314.111 72.4382 314.662 72.1973C315.213 71.9564 315.841 71.8669 316.546 71.9286C317.371 72.0007 318.1 72.2753 318.733 72.7523C319.366 73.2292 319.84 73.873 320.154 74.6835C320.481 75.495 320.599 76.4148 320.509 77.4429C320.419 78.471 320.142 79.3622 319.679 80.1167C319.228 80.8603 318.649 81.418 317.942 81.7897C317.236 82.1496 316.471 82.2934 315.646 82.2212C314.953 82.1606 314.35 81.9633 313.837 81.6293C313.336 81.2964 312.956 80.8897 312.697 80.4093L312.157 86.5777L309.091 86.3095L310.383 71.5339L313.45 71.8022L313.326 73.2188ZM317.389 77.1699C317.456 76.4049 317.293 75.7883 316.9 75.3203C316.52 74.8414 316.02 74.5747 315.398 74.5203C314.789 74.467 314.249 74.6427 313.78 75.0473C313.323 75.453 313.061 76.0384 312.994 76.8035C312.927 77.5686 313.084 78.1906 313.463 78.6695C313.855 79.1495 314.356 79.4161 314.965 79.4694C315.575 79.5228 316.114 79.3471 316.583 78.9425C317.053 78.5259 317.322 77.935 317.389 77.1699ZM326.103 73.5235C326.263 72.2486 326.767 71.299 327.617 70.6747C328.467 70.0503 329.567 69.7973 330.918 69.9155C331.814 69.9939 332.566 70.2162 333.172 70.5825C333.791 70.9498 334.238 71.4165 334.513 71.9827C334.801 72.5499 334.916 73.1683 334.857 73.8377C334.788 74.6267 334.534 75.255 334.096 75.7225C333.658 76.1781 333.169 76.4726 332.627 76.6059L332.621 76.6776C333.283 76.9644 333.788 77.388 334.136 77.9485C334.484 78.509 334.623 79.2017 334.55 80.0265C334.486 80.7677 334.255 81.41 333.858 81.9535C333.474 82.4861 332.939 82.885 332.253 83.1502C331.58 83.4165 330.795 83.5104 329.898 83.432C328.463 83.3065 327.347 82.8534 326.548 82.0728C325.761 81.2933 325.405 80.1901 325.482 78.7634L328.459 79.0238C328.425 79.5508 328.537 79.9823 328.797 80.3182C329.058 80.6422 329.463 80.8282 330.013 80.8763C330.479 80.9171 330.849 80.817 331.124 80.5759C331.411 80.324 331.573 79.9769 331.612 79.5346C331.662 78.9608 331.513 78.5321 331.165 78.2487C330.829 77.9543 330.261 77.7721 329.46 77.702L328.886 77.6518L329.104 75.1593L329.678 75.2095C330.287 75.2629 330.786 75.2041 331.175 75.0333C331.576 74.8516 331.8 74.4918 331.847 73.9538C331.885 73.5235 331.795 73.1783 331.577 72.9183C331.358 72.6583 331.04 72.51 330.622 72.4734C330.168 72.4336 329.815 72.5413 329.564 72.7964C329.324 73.0525 329.169 73.3822 329.098 73.7855L326.103 73.5235Z" fill="#42454F"/>
<path d="M389.144 88.6345C388.223 88.5539 387.412 88.3323 386.709 87.9697C386.005 87.607 385.458 87.1135 385.067 86.489C384.688 85.8656 384.523 85.1404 384.571 84.3135L387.835 84.599C387.842 85.0694 387.972 85.4422 388.225 85.7173C388.479 85.9804 388.827 86.1313 389.269 86.17C389.723 86.2098 390.091 86.1395 390.372 85.9593C390.653 85.7671 390.811 85.4858 390.843 85.1152C390.87 84.8044 390.785 84.5379 390.588 84.3159C390.402 84.0949 390.16 83.905 389.861 83.7463C389.573 83.5887 389.156 83.4016 388.609 83.1851C387.818 82.8629 387.176 82.5539 386.684 82.2578C386.192 81.9618 385.782 81.5525 385.455 81.03C385.127 80.5074 384.998 79.8517 385.067 79.0627C385.169 77.8912 385.673 77.0138 386.58 76.4306C387.487 75.8354 388.622 75.5974 389.985 75.7166C391.372 75.8379 392.46 76.2705 393.25 77.0142C394.041 77.7459 394.415 78.7061 394.371 79.8948L391.054 79.6046C391.066 79.1961 390.944 78.8662 390.689 78.615C390.435 78.3519 390.093 78.2015 389.662 78.1638C389.292 78.1314 388.984 78.2069 388.739 78.3902C388.495 78.5616 388.357 78.8326 388.325 79.2032C388.289 79.6096 388.453 79.9432 388.815 80.2038C389.178 80.4644 389.754 80.7617 390.544 81.0958C391.333 81.4419 391.968 81.7624 392.448 82.0574C392.94 82.3534 393.35 82.7567 393.679 83.2673C394.008 83.7779 394.139 84.4098 394.073 85.1629C394.01 85.8801 393.768 86.5154 393.346 87.0688C392.936 87.6232 392.37 88.0434 391.646 88.3294C390.922 88.6154 390.088 88.7171 389.144 88.6345ZM401.436 86.9635L401.209 89.5636L399.649 89.4271C398.537 89.3298 397.694 88.985 397.119 88.3927C396.546 87.7884 396.313 86.8706 396.421 85.6393L396.769 81.6585L395.55 81.5518L395.773 79.0056L396.992 79.1122L397.205 76.6736L400.271 76.9418L400.058 79.3805L402.066 79.5562L401.844 82.1025L399.835 81.9268L399.484 85.9434C399.458 86.2423 399.511 86.4637 399.643 86.6078C399.775 86.7518 400.008 86.8385 400.343 86.8678L401.436 86.9635ZM412.801 85.3739C412.776 85.6608 412.732 85.9581 412.669 86.2658L405.729 85.6586C405.722 86.2845 405.878 86.7799 406.195 87.1449C406.526 87.4991 406.948 87.6986 407.462 87.7436C408.227 87.8105 408.787 87.5343 409.143 86.9149L412.406 87.2005C412.181 87.8433 411.825 88.4084 411.336 88.8957C410.86 89.384 410.28 89.7488 409.596 89.9902C408.913 90.2315 408.164 90.3166 407.351 90.2455C406.371 90.1597 405.517 89.8742 404.788 89.3889C404.06 88.9035 403.514 88.2535 403.152 87.4388C402.79 86.6241 402.654 85.6968 402.745 84.6568C402.836 83.6167 403.125 82.7265 403.611 81.9861C404.109 81.2467 404.759 80.7013 405.561 80.3498C406.363 79.9983 407.26 79.866 408.252 79.9528C409.22 80.0375 410.063 80.3161 410.781 80.7884C411.498 81.2607 412.033 81.8918 412.386 82.6815C412.75 83.4723 412.889 84.3697 412.801 85.3739ZM409.733 84.2924C409.779 83.7665 409.637 83.3324 409.305 82.9902C408.974 82.648 408.539 82.4534 408.001 82.4063C407.487 82.3613 407.038 82.4726 406.653 82.7401C406.28 83.0086 406.028 83.4141 405.896 83.9567L409.733 84.2924ZM417.784 82.3588C418.124 81.9187 418.569 81.5782 419.12 81.3373C419.672 81.0964 420.3 81.0069 421.005 81.0686C421.83 81.1407 422.559 81.4153 423.192 81.8923C423.824 82.3692 424.298 83.013 424.613 83.8235C424.939 84.635 425.057 85.5548 424.967 86.5829C424.878 87.611 424.601 88.5022 424.137 89.2567C423.687 90.0003 423.108 90.558 422.401 90.9297C421.695 91.2896 420.929 91.4334 420.105 91.3613C419.411 91.3006 418.808 91.1033 418.295 90.7693C417.794 90.4364 417.414 90.0297 417.155 89.5493L416.616 95.7177L413.549 95.4495L414.842 80.6739L417.908 80.9422L417.784 82.3588ZM421.847 86.3099C421.914 85.5449 421.751 84.9283 421.359 84.4603C420.979 83.9814 420.478 83.7147 419.857 83.6604C419.247 83.607 418.708 83.7827 418.239 84.1873C417.782 84.593 417.52 85.1784 417.453 85.9435C417.386 86.7086 417.542 87.3306 417.922 87.8095C418.313 88.2895 418.814 88.5561 419.424 88.6094C420.033 88.6628 420.573 88.4871 421.042 88.0825C421.512 87.6659 421.78 87.075 421.847 86.3099ZM429.908 89.7254L430.124 87.2509L436.5 79.6416L439.925 79.9412L439.231 87.8669L440.701 87.9956L440.469 90.6494L438.999 90.5208L438.795 92.8519L435.729 92.5836L435.933 90.2525L429.908 89.7254ZM436.778 83.0629L433.367 87.3539L436.38 87.6175L436.778 83.0629Z" fill="#42454F"/>
<path d="M143.004 46.8965L155.73 62.0634L140.564 74.7899" stroke="#D2D7E5" stroke-width="4" stroke-miterlimit="10" stroke-linecap="round" stroke-linejoin="round"/>
<path d="M248.6 56.1348L261.326 71.3017L246.159 84.0282" stroke="#D2D7E5" stroke-width="4" stroke-miterlimit="10" stroke-linecap="round" stroke-linejoin="round"/>
<path d="M354.197 65.373L366.924 80.54L351.757 93.2665" stroke="#D2D7E5" stroke-width="4" stroke-miterlimit="10" stroke-linecap="round" stroke-linejoin="round"/>
<circle cx="437" cy="206" r="40" fill="#0183FF"/>
<path d="M423 198L423 192L429 192" stroke="white" stroke-width="2" stroke-miterlimit="10" stroke-linecap="round" stroke-linejoin="round"/>
<path d="M451 198L451 192L445 192" stroke="white" stroke-width="2" stroke-miterlimit="10" stroke-linecap="round" stroke-linejoin="round"/>
<path d="M423 214L423 220L429 220" stroke="white" stroke-width="2" stroke-miterlimit="10" stroke-linecap="round" stroke-linejoin="round"/>
<path d="M451 214L451 220L445 220" stroke="white" stroke-width="2" stroke-miterlimit="10" stroke-linecap="round" stroke-linejoin="round"/>
<path d="M423 206C423 206 429 198 437 198C445 198 451 206 451 206C451 206 445 214 437 214C429 214 423 206 423 206Z" stroke="white" stroke-width="2" stroke-miterlimit="10" stroke-linecap="round" stroke-linejoin="round"/>
<path d="M437 210C439.209 210 441 208.209 441 206C441 203.791 439.209 202 437 202C434.791 202 433 203.791 433 206C433 208.209 434.791 210 437 210Z" stroke="white" stroke-width="2" stroke-miterlimit="10" stroke-linecap="round" stroke-linejoin="round"/>
</svg>
