<svg width="531" height="438" viewBox="0 0 531 438" fill="none" xmlns="http://www.w3.org/2000/svg">
<rect x="62.9492" width="438" height="401" rx="16" transform="rotate(5 62.9492 0)" fill="#141D3B"/>
<rect y="208" width="325" height="200" rx="8" fill="white"/>
<rect x="20" y="274" width="10" height="114" rx="2" fill="#369DFF"/>
<rect x="19" y="330" width="12" height="59" rx="3" fill="#37D9EF" stroke="white" stroke-width="2"/>
<rect x="19" y="349" width="12" height="40" rx="3" fill="#2CE75C" stroke="white" stroke-width="2"/>
<rect x="50" y="302" width="10" height="86" rx="2" fill="#369DFF"/>
<rect x="49" y="351" width="12" height="38" rx="3" fill="#37D9EF" stroke="white" stroke-width="2"/>
<rect x="49" y="369" width="12" height="20" rx="3" fill="#2CE75C" stroke="white" stroke-width="2"/>
<rect x="80" y="274" width="10" height="114" rx="2" fill="#369DFF"/>
<rect x="79" y="317" width="12" height="72" rx="3" fill="#37D9EF" stroke="white" stroke-width="2"/>
<rect x="79" y="349" width="12" height="40" rx="3" fill="#2CE75C" stroke="white" stroke-width="2"/>
<rect x="110" y="290" width="10" height="98" rx="2" fill="#369DFF"/>
<rect x="109" y="317" width="12" height="72" rx="3" fill="#37D9EF" stroke="white" stroke-width="2"/>
<rect x="109" y="357" width="12" height="32" rx="3" fill="#2CE75C" stroke="white" stroke-width="2"/>
<rect x="140" y="297" width="10" height="91" rx="2" fill="#369DFF"/>
<rect x="139" y="330" width="12" height="59" rx="3" fill="#37D9EF" stroke="white" stroke-width="2"/>
<rect x="139" y="364" width="12" height="25" rx="3" fill="#2CE75C" stroke="white" stroke-width="2"/>
<rect x="170" y="284" width="10" height="104" rx="2" fill="#369DFF"/>
<rect x="169" y="330" width="12" height="59" rx="3" fill="#37D9EF" stroke="white" stroke-width="2"/>
<rect x="169" y="349" width="12" height="40" rx="3" fill="#2CE75C" stroke="white" stroke-width="2"/>
<rect x="200" y="274" width="10" height="114" rx="2" fill="#369DFF"/>
<rect x="199" y="299" width="12" height="90" rx="3" fill="#37D9EF" stroke="white" stroke-width="2"/>
<rect x="199" y="330" width="12" height="59" rx="3" fill="#2CE75C" stroke="white" stroke-width="2"/>
<rect x="230" y="284" width="10" height="104" rx="2" fill="#369DFF"/>
<rect x="229" y="308" width="12" height="81" rx="3" fill="#37D9EF" stroke="white" stroke-width="2"/>
<rect x="229" y="349" width="12" height="40" rx="3" fill="#2CE75C" stroke="white" stroke-width="2"/>
<rect x="260" y="300" width="10" height="88" rx="2" fill="#369DFF"/>
<rect x="259" y="339" width="12" height="50" rx="3" fill="#37D9EF" stroke="white" stroke-width="2"/>
<rect x="259" y="364" width="12" height="25" rx="3" fill="#2CE75C" stroke="white" stroke-width="2"/>
<rect x="290" y="287" width="10" height="101" rx="2" fill="#369DFF"/>
<rect x="289" y="330" width="12" height="59" rx="3" fill="#37D9EF" stroke="white" stroke-width="2"/>
<rect x="289" y="376" width="12" height="13" rx="3" fill="#2CE75C" stroke="white" stroke-width="2"/>
<path d="M30.978 246.272H25.214L24.29 249H20.352L25.94 233.556H30.296L35.884 249H31.902L30.978 246.272ZM30.01 243.368L28.096 237.714L26.204 243.368H30.01ZM45.0647 236.592C46.502 236.592 47.646 237.061 48.4967 238C49.362 238.924 49.7947 240.2 49.7947 241.828V249H46.0547V242.334C46.0547 241.513 45.842 240.875 45.4167 240.42C44.9914 239.965 44.4194 239.738 43.7007 239.738C42.982 239.738 42.41 239.965 41.9847 240.42C41.5594 240.875 41.3467 241.513 41.3467 242.334V249H37.5847V236.724H41.3467V238.352C41.728 237.809 42.2414 237.384 42.8867 237.076C43.532 236.753 44.258 236.592 45.0647 236.592ZM51.6609 242.84C51.6609 241.579 51.8956 240.471 52.3649 239.518C52.8489 238.565 53.5016 237.831 54.3229 237.318C55.1443 236.805 56.0609 236.548 57.0729 236.548C57.9383 236.548 58.6936 236.724 59.3389 237.076C59.9989 237.428 60.5049 237.89 60.8569 238.462V236.724H64.6189V249H60.8569V247.262C60.4903 247.834 59.9769 248.296 59.3169 248.648C58.6716 249 57.9163 249.176 57.0509 249.176C56.0536 249.176 55.1443 248.919 54.3229 248.406C53.5016 247.878 52.8489 247.137 52.3649 246.184C51.8956 245.216 51.6609 244.101 51.6609 242.84ZM60.8569 242.862C60.8569 241.923 60.5929 241.183 60.0649 240.64C59.5516 240.097 58.9209 239.826 58.1729 239.826C57.4249 239.826 56.7869 240.097 56.2589 240.64C55.7456 241.168 55.4889 241.901 55.4889 242.84C55.4889 243.779 55.7456 244.527 56.2589 245.084C56.7869 245.627 57.4249 245.898 58.1729 245.898C58.9209 245.898 59.5516 245.627 60.0649 245.084C60.5929 244.541 60.8569 243.801 60.8569 242.862ZM71.1026 232.72V249H67.3406V232.72H71.1026ZM86.3688 236.724L78.6688 254.83H74.6208L77.4368 248.582L72.4428 236.724H76.6448L79.4828 244.402L82.2988 236.724H86.3688ZM94.5712 245.81V249H92.6572C91.2932 249 90.2299 248.67 89.4672 248.01C88.7046 247.335 88.3232 246.243 88.3232 244.732V239.848H86.8272V236.724H88.3232V233.732H92.0852V236.724H94.5492V239.848H92.0852V244.776C92.0852 245.143 92.1732 245.407 92.3492 245.568C92.5252 245.729 92.8186 245.81 93.2292 245.81H94.5712ZM98.5587 235.448C97.8987 235.448 97.3561 235.257 96.9307 234.876C96.5201 234.48 96.3147 233.996 96.3147 233.424C96.3147 232.837 96.5201 232.353 96.9307 231.972C97.3561 231.576 97.8987 231.378 98.5587 231.378C99.2041 231.378 99.7321 231.576 100.143 231.972C100.568 232.353 100.781 232.837 100.781 233.424C100.781 233.996 100.568 234.48 100.143 234.876C99.7321 235.257 99.2041 235.448 98.5587 235.448ZM100.429 236.724V249H96.6667V236.724H100.429ZM102.407 242.862C102.407 241.586 102.664 240.471 103.177 239.518C103.705 238.565 104.431 237.831 105.355 237.318C106.294 236.805 107.364 236.548 108.567 236.548C110.107 236.548 111.39 236.951 112.417 237.758C113.458 238.565 114.14 239.701 114.463 241.168H110.459C110.122 240.229 109.469 239.76 108.501 239.76C107.812 239.76 107.262 240.031 106.851 240.574C106.44 241.102 106.235 241.865 106.235 242.862C106.235 243.859 106.44 244.629 106.851 245.172C107.262 245.7 107.812 245.964 108.501 245.964C109.469 245.964 110.122 245.495 110.459 244.556H114.463C114.14 245.993 113.458 247.123 112.417 247.944C111.376 248.765 110.092 249.176 108.567 249.176C107.364 249.176 106.294 248.919 105.355 248.406C104.431 247.893 103.705 247.159 103.177 246.206C102.664 245.253 102.407 244.138 102.407 242.862ZM121.469 249.176C120.399 249.176 119.445 248.993 118.609 248.626C117.773 248.259 117.113 247.761 116.629 247.13C116.145 246.485 115.874 245.766 115.815 244.974H119.533C119.577 245.399 119.775 245.744 120.127 246.008C120.479 246.272 120.912 246.404 121.425 246.404C121.895 246.404 122.254 246.316 122.503 246.14C122.767 245.949 122.899 245.707 122.899 245.414C122.899 245.062 122.716 244.805 122.349 244.644C121.983 244.468 121.389 244.277 120.567 244.072C119.687 243.867 118.954 243.654 118.367 243.434C117.781 243.199 117.275 242.84 116.849 242.356C116.424 241.857 116.211 241.19 116.211 240.354C116.211 239.65 116.402 239.012 116.783 238.44C117.179 237.853 117.751 237.391 118.499 237.054C119.262 236.717 120.164 236.548 121.205 236.548C122.745 236.548 123.955 236.929 124.835 237.692C125.73 238.455 126.243 239.467 126.375 240.728H122.899C122.841 240.303 122.65 239.965 122.327 239.716C122.019 239.467 121.609 239.342 121.095 239.342C120.655 239.342 120.318 239.43 120.083 239.606C119.849 239.767 119.731 239.995 119.731 240.288C119.731 240.64 119.915 240.904 120.281 241.08C120.663 241.256 121.249 241.432 122.041 241.608C122.951 241.843 123.691 242.077 124.263 242.312C124.835 242.532 125.334 242.899 125.759 243.412C126.199 243.911 126.427 244.585 126.441 245.436C126.441 246.155 126.236 246.8 125.825 247.372C125.429 247.929 124.85 248.369 124.087 248.692C123.339 249.015 122.467 249.176 121.469 249.176Z" fill="#42454F"/>
<rect x="205.002" y="28" width="325" height="150" rx="8" fill="white"/>
<rect x="255.002" y="99" width="84" height="10" rx="2" fill="#D2D7E6"/>
<rect x="255.002" y="139" width="84" height="10" rx="2" fill="#D2D7E6"/>
<rect x="255.002" y="119" width="119" height="10" rx="2" fill="#D2D7E6"/>
<rect x="349.002" y="99" width="84" height="10" rx="2" fill="#D2D7E6"/>
<rect x="349.002" y="139" width="84" height="10" rx="2" fill="#D2D7E6"/>
<rect x="443.002" y="99" width="61" height="10" rx="2" fill="#D2D7E6"/>
<rect x="384.002" y="119" width="120" height="10" rx="2" fill="#D2D7E6"/>
<rect x="225.002" y="48" width="10" height="110" rx="5" fill="#37D9EF"/>
<path d="M310.128 54.556V70H306.366V54.556H310.128ZM317.848 70.176C316.778 70.176 315.824 69.9927 314.988 69.626C314.152 69.2593 313.492 68.7607 313.008 68.13C312.524 67.4847 312.253 66.766 312.194 65.974H315.912C315.956 66.3993 316.154 66.744 316.506 67.008C316.858 67.272 317.291 67.404 317.804 67.404C318.274 67.404 318.633 67.316 318.882 67.14C319.146 66.9493 319.278 66.7073 319.278 66.414C319.278 66.062 319.095 65.8053 318.728 65.644C318.362 65.468 317.768 65.2773 316.946 65.072C316.066 64.8667 315.333 64.654 314.746 64.434C314.16 64.1993 313.654 63.84 313.228 63.356C312.803 62.8573 312.59 62.19 312.59 61.354C312.59 60.65 312.781 60.012 313.162 59.44C313.558 58.8533 314.13 58.3913 314.878 58.054C315.641 57.7167 316.543 57.548 317.584 57.548C319.124 57.548 320.334 57.9293 321.214 58.692C322.109 59.4547 322.622 60.4667 322.754 61.728H319.278C319.22 61.3027 319.029 60.9653 318.706 60.716C318.398 60.4667 317.988 60.342 317.474 60.342C317.034 60.342 316.697 60.43 316.462 60.606C316.228 60.7673 316.11 60.9947 316.11 61.288C316.11 61.64 316.294 61.904 316.66 62.08C317.042 62.256 317.628 62.432 318.42 62.608C319.33 62.8427 320.07 63.0773 320.642 63.312C321.214 63.532 321.713 63.8987 322.138 64.412C322.578 64.9107 322.806 65.5853 322.82 66.436C322.82 67.1547 322.615 67.8 322.204 68.372C321.808 68.9293 321.229 69.3693 320.466 69.692C319.718 70.0147 318.846 70.176 317.848 70.176ZM330.116 70.176C329.045 70.176 328.092 69.9927 327.256 69.626C326.42 69.2593 325.76 68.7607 325.276 68.13C324.792 67.4847 324.52 66.766 324.462 65.974H328.18C328.224 66.3993 328.422 66.744 328.774 67.008C329.126 67.272 329.558 67.404 330.072 67.404C330.541 67.404 330.9 67.316 331.15 67.14C331.414 66.9493 331.546 66.7073 331.546 66.414C331.546 66.062 331.362 65.8053 330.996 65.644C330.629 65.468 330.035 65.2773 329.214 65.072C328.334 64.8667 327.6 64.654 327.014 64.434C326.427 64.1993 325.921 63.84 325.496 63.356C325.07 62.8573 324.858 62.19 324.858 61.354C324.858 60.65 325.048 60.012 325.43 59.44C325.826 58.8533 326.398 58.3913 327.146 58.054C327.908 57.7167 328.81 57.548 329.852 57.548C331.392 57.548 332.602 57.9293 333.482 58.692C334.376 59.4547 334.89 60.4667 335.022 61.728H331.546C331.487 61.3027 331.296 60.9653 330.974 60.716C330.666 60.4667 330.255 60.342 329.742 60.342C329.302 60.342 328.964 60.43 328.73 60.606C328.495 60.7673 328.378 60.9947 328.378 61.288C328.378 61.64 328.561 61.904 328.928 62.08C329.309 62.256 329.896 62.432 330.688 62.608C331.597 62.8427 332.338 63.0773 332.91 63.312C333.482 63.532 333.98 63.8987 334.406 64.412C334.846 64.9107 335.073 65.5853 335.088 66.436C335.088 67.1547 334.882 67.8 334.472 68.372C334.076 68.9293 333.496 69.3693 332.734 69.692C331.986 70.0147 331.113 70.176 330.116 70.176ZM349.511 57.724V70H345.749V68.328C345.368 68.8707 344.847 69.3107 344.187 69.648C343.542 69.9707 342.823 70.132 342.031 70.132C341.093 70.132 340.264 69.9267 339.545 69.516C338.827 69.0907 338.269 68.482 337.873 67.69C337.477 66.898 337.279 65.9667 337.279 64.896V57.724H341.019V64.39C341.019 65.2113 341.232 65.8493 341.657 66.304C342.083 66.7587 342.655 66.986 343.373 66.986C344.107 66.986 344.686 66.7587 345.111 66.304C345.537 65.8493 345.749 65.2113 345.749 64.39V57.724H349.511ZM363.786 63.664C363.786 64.016 363.764 64.3827 363.72 64.764H355.206C355.264 65.5267 355.506 66.1133 355.932 66.524C356.372 66.92 356.907 67.118 357.538 67.118C358.476 67.118 359.129 66.722 359.496 65.93H363.5C363.294 66.7367 362.92 67.4627 362.378 68.108C361.85 68.7533 361.182 69.2593 360.376 69.626C359.569 69.9927 358.667 70.176 357.67 70.176C356.467 70.176 355.396 69.9193 354.458 69.406C353.519 68.8927 352.786 68.1593 352.258 67.206C351.73 66.2527 351.466 65.138 351.466 63.862C351.466 62.586 351.722 61.4713 352.236 60.518C352.764 59.5647 353.497 58.8313 354.436 58.318C355.374 57.8047 356.452 57.548 357.67 57.548C358.858 57.548 359.914 57.7973 360.838 58.296C361.762 58.7947 362.48 59.506 362.994 60.43C363.522 61.354 363.786 62.432 363.786 63.664ZM359.936 62.674C359.936 62.0287 359.716 61.5153 359.276 61.134C358.836 60.7527 358.286 60.562 357.626 60.562C356.995 60.562 356.46 60.7453 356.02 61.112C355.594 61.4787 355.33 61.9993 355.228 62.674H359.936ZM384.798 60.364L384.182 63.246H386.822V66.634H383.456L382.73 70H379.21L379.936 66.634H376.284L375.558 70H372.038L372.764 66.634H369.508V63.246H373.49L374.106 60.364H370.916V56.976H374.81L375.514 53.72H379.034L378.33 56.976H381.982L382.686 53.72H386.206L385.502 56.976H388.23V60.364H384.798ZM381.278 60.364H377.626L377.01 63.246H380.662L381.278 60.364ZM390.041 67.14V64.104L396.993 54.16H401.195V63.884H402.999V67.14H401.195V70H397.433V67.14H390.041ZM397.697 58.296L394.001 63.884H397.697V58.296ZM404.71 66.986C405.208 66.59 405.436 66.4067 405.392 66.436C406.829 65.248 407.958 64.2727 408.78 63.51C409.616 62.7473 410.32 61.948 410.892 61.112C411.464 60.276 411.75 59.462 411.75 58.67C411.75 58.0687 411.61 57.5993 411.332 57.262C411.053 56.9247 410.635 56.756 410.078 56.756C409.52 56.756 409.08 56.9687 408.758 57.394C408.45 57.8047 408.296 58.3913 408.296 59.154H404.666C404.695 57.9073 404.959 56.866 405.458 56.03C405.971 55.194 406.638 54.578 407.46 54.182C408.296 53.786 409.22 53.588 410.232 53.588C411.977 53.588 413.29 54.0353 414.17 54.93C415.064 55.8247 415.512 56.9907 415.512 58.428C415.512 59.9973 414.976 61.4567 413.906 62.806C412.835 64.1407 411.471 65.446 409.814 66.722H415.754V69.78H404.71V66.986ZM417.41 61.75C417.41 59.2273 417.894 57.24 418.862 55.788C419.845 54.336 421.421 53.61 423.592 53.61C425.763 53.61 427.332 54.336 428.3 55.788C429.283 57.24 429.774 59.2273 429.774 61.75C429.774 64.302 429.283 66.304 428.3 67.756C427.332 69.208 425.763 69.934 423.592 69.934C421.421 69.934 419.845 69.208 418.862 67.756C417.894 66.304 417.41 64.302 417.41 61.75ZM426.078 61.75C426.078 60.2687 425.917 59.132 425.594 58.34C425.271 57.5333 424.604 57.13 423.592 57.13C422.58 57.13 421.913 57.5333 421.59 58.34C421.267 59.132 421.106 60.2687 421.106 61.75C421.106 62.7473 421.165 63.576 421.282 64.236C421.399 64.8813 421.634 65.4093 421.986 65.82C422.353 66.216 422.888 66.414 423.592 66.414C424.296 66.414 424.824 66.216 425.176 65.82C425.543 65.4093 425.785 64.8813 425.902 64.236C426.019 63.576 426.078 62.7473 426.078 61.75Z" fill="#42454F"/>
<circle cx="270.002" cy="64" r="13" stroke="#D2D7E5" stroke-width="4"/>
<circle cx="444" cy="305.324" r="40" fill="#37D9EF"/>
<path d="M457 318L448.777 309.777" stroke="white" stroke-width="2" stroke-miterlimit="10" stroke-linecap="round" stroke-linejoin="round"/>
<path d="M441 313C447.075 313 452 308.075 452 302C452 295.925 447.075 291 441 291C434.925 291 430 295.925 430 302C430 308.075 434.925 313 441 313Z" stroke="white" stroke-width="2" stroke-miterlimit="10" stroke-linecap="round" stroke-linejoin="round"/>
<circle cx="68" cy="70" r="40" fill="#0183FF"/>
<path d="M82 59L71 70V80L65 84V70L54 59V55H82V59Z" stroke="white" stroke-width="2" stroke-miterlimit="10" stroke-linecap="round" stroke-linejoin="round"/>
</svg>
